<svg width="52" height="27" viewBox="0 0 52 27" fill="none" xmlns="http://www.w3.org/2000/svg">
<path d="M45.2484 25.8017L51.7063 16.6584C52.4467 15.5729 51.7063 14.0699 50.3901 14.0699L46.4824 14.0699L46.4824 9.85309C46.4824 4.42554 42.1223 -4.31766e-07 36.7751 -6.65504e-07L19.6226 -1.41526e-06L19.6226 5.2188L36.7751 5.2188C39.2842 5.2188 41.3408 7.30632 41.3408 9.85309L41.3408 14.0699L37.4332 14.0699C36.1169 14.0699 35.3765 15.5729 36.1169 16.6584L42.5748 25.8017C43.2329 26.7202 44.5492 26.7202 45.1662 25.8017L45.2484 25.8017Z" fill="white"/>
<path d="M6.75157 0.688985L0.293716 9.83234C-0.446678 10.9179 0.293695 12.4208 1.60995 12.4208L5.51758 12.4208L5.51758 16.6376C5.51758 22.0652 9.87766 26.4907 15.2249 26.4907L32.3774 26.4907L32.3774 21.2719L15.2249 21.2719C12.7158 21.2719 10.6592 19.1844 10.6592 16.6376L10.6592 12.4208L14.5668 12.4208C15.8831 12.4208 16.6235 10.9179 15.8831 9.83234L9.42521 0.688985C8.76709 -0.229524 7.45081 -0.229525 6.83382 0.688985L6.75157 0.688985Z" fill="white"/>
</svg>
